<svg width="60" height="61" viewBox="0 0 60 61" fill="none" xmlns="http://www.w3.org/2000/svg">
<path d="M48.75 10.3201H11.25C9.75816 10.3201 8.32742 10.9127 7.27252 11.9676C6.21763 13.0225 5.625 14.4532 5.625 15.9451V42.1951C5.625 43.6869 6.21763 45.1177 7.27252 46.1725C8.32742 47.2274 9.75816 47.8201 11.25 47.8201H28.125V51.5701H22.5C22.0027 51.5701 21.5258 51.7676 21.1742 52.1192C20.8225 52.4709 20.625 52.9478 20.625 53.4451C20.625 53.9423 20.8225 54.4193 21.1742 54.7709C21.5258 55.1225 22.0027 55.3201 22.5 55.3201H37.5C37.9973 55.3201 38.4742 55.1225 38.8258 54.7709C39.1775 54.4193 39.375 53.9423 39.375 53.4451C39.375 52.9478 39.1775 52.4709 38.8258 52.1192C38.4742 51.7676 37.9973 51.5701 37.5 51.5701H31.875V47.8201H48.75C50.2418 47.8201 51.6726 47.2274 52.7275 46.1725C53.7824 45.1177 54.375 43.6869 54.375 42.1951V15.9451C54.375 14.4532 53.7824 13.0225 52.7275 11.9676C51.6726 10.9127 50.2418 10.3201 48.75 10.3201ZM48.75 44.0701H11.25C10.7527 44.0701 10.2758 43.8725 9.92418 43.5209C9.57254 43.1693 9.375 42.6923 9.375 42.1951V38.4451H50.625V42.1951C50.625 42.6923 50.4275 43.1693 50.0758 43.5209C49.7242 43.8725 49.2473 44.0701 48.75 44.0701Z" fill="#2EAED1"/>
</svg>
