<svg width="60" height="61" viewBox="0 0 60 61" fill="none" xmlns="http://www.w3.org/2000/svg">
<path d="M47.236 13.7091C42.6647 9.13787 36.4648 6.56976 30.0001 6.56976C23.5353 6.56976 17.3354 9.13787 12.7641 13.7091C8.19286 18.2804 5.62476 24.4803 5.62476 30.9451C5.62476 37.4098 8.19286 43.6097 12.7641 48.181C17.3354 52.7522 23.5353 55.3204 30.0001 55.3204C36.4648 55.3204 42.6647 52.7522 47.236 48.181C51.8072 43.6097 54.3753 37.4098 54.3753 30.9451C54.3753 24.4803 51.8072 18.2804 47.236 13.7091ZM30.0001 40.9927C29.0778 39.9417 27.8795 39.1701 26.541 38.7653C25.2026 38.3606 23.7775 38.339 22.4274 38.7029L26.0157 30.9451H33.9844L37.5633 38.7029C36.2146 38.3408 34.7914 38.3634 33.4548 38.7681C32.1182 39.1728 30.9215 39.9434 30.0001 40.9927ZM39.375 49.313C37.0354 50.5041 34.4898 51.2376 31.8751 51.474V45.9451C31.8751 44.9505 32.2701 43.9967 32.9734 43.2934C33.6767 42.5901 34.6305 42.1951 35.6251 42.1951C36.6196 42.1951 37.5734 42.5901 38.2767 43.2934C38.98 43.9967 39.375 44.9505 39.375 45.9451V49.313ZM44.5829 45.5302C44.1141 45.999 43.6266 46.4372 43.125 46.8521V42.1951C43.1254 41.9238 43.0662 41.6558 42.9516 41.4099L31.7016 17.0349C31.5513 16.7102 31.3112 16.4353 31.0097 16.2426C30.7082 16.0499 30.3579 15.9475 30.0001 15.9475C29.6422 15.9475 29.2919 16.0499 28.9904 16.2426C28.6889 16.4353 28.4488 16.7102 28.2985 17.0349L17.0485 41.4099C16.9339 41.6558 16.8747 41.9238 16.8751 42.1951V46.8521C16.3735 46.4372 15.886 45.999 15.4172 45.5302C12.5324 42.6459 10.5677 38.9709 9.77162 34.9699C8.97551 30.969 9.38374 26.8218 10.9447 23.0529C12.5056 19.2839 15.1492 16.0625 18.541 13.7961C21.9329 11.5296 25.9207 10.3199 30.0001 10.3199C34.0794 10.3199 38.0672 11.5296 41.4591 13.7961C44.8509 16.0625 47.4945 19.2839 49.0554 23.0529C50.6164 26.8218 51.0246 30.969 50.2285 34.9699C49.4324 38.9709 47.4677 42.6459 44.5829 45.5302Z" fill="#2EAED1"/>
</svg>
