<svg width="60" height="61" viewBox="0 0 60 61" fill="none" xmlns="http://www.w3.org/2000/svg">
<g clip-path="url(#clip0_13_137)">
<path d="M41.75 4.69507H19.25C17.7582 4.69507 16.3274 5.2877 15.2725 6.34259C14.2176 7.39749 13.625 8.82823 13.625 10.3201V51.5701C13.625 53.0619 14.2176 54.4927 15.2725 55.5475C16.3274 56.6024 17.7582 57.1951 19.25 57.1951H41.75C43.2418 57.1951 44.6726 56.6024 45.7275 55.5475C46.7824 54.4927 47.375 53.0619 47.375 51.5701V10.3201C47.375 8.82823 46.7824 7.39749 45.7275 6.34259C44.6726 5.2877 43.2418 4.69507 41.75 4.69507ZM19.25 8.44507H41.75C42.2473 8.44507 42.7242 8.64261 43.0758 8.99424C43.4275 9.34587 43.625 9.82279 43.625 10.3201V12.1951H17.375V10.3201C17.375 9.82279 17.5725 9.34587 17.9242 8.99424C18.2758 8.64261 18.7527 8.44507 19.25 8.44507ZM41.75 53.4451H19.25C18.7527 53.4451 18.2758 53.2475 17.9242 52.8959C17.5725 52.5443 17.375 52.0673 17.375 51.5701V49.6951H43.625V51.5701C43.625 52.0673 43.4275 52.5443 43.0758 52.8959C42.7242 53.2475 42.2473 53.4451 41.75 53.4451Z" fill="#2EAED1"/>
</g>
<defs>
<clipPath id="clip0_13_137">
<rect width="60" height="60" fill="white" transform="translate(0 0.945068)"/>
</clipPath>
</defs>
</svg>
